<?xml version="1.0" encoding="UTF-8"?>
<svg xmlns="http://www.w3.org/2000/svg" version="1.1" width="500" height="500" viewBox="0 0 500 500"><rect x="0" y="0" width="500" height="500" fill="#ffffff"/><g transform="scale(15.152)"><g transform="translate(0,0)"><path fill-rule="evenodd" d="M10 0L10 2L11 2L11 0ZM12 0L12 1L13 1L13 0ZM14 0L14 2L16 2L16 3L13 3L13 2L12 2L12 4L16 4L16 3L17 3L17 5L15 5L15 6L14 6L14 8L13 8L13 9L12 9L12 7L13 7L13 5L11 5L11 6L10 6L10 4L11 4L11 3L8 3L8 4L9 4L9 5L8 5L8 7L9 7L9 8L6 8L6 9L7 9L7 10L6 10L6 11L5 11L5 10L4 10L4 9L5 9L5 8L0 8L0 9L1 9L1 11L0 11L0 12L2 12L2 9L3 9L3 11L4 11L4 15L3 15L3 17L2 17L2 18L3 18L3 20L5 20L5 21L3 21L3 22L6 22L6 23L7 23L7 24L4 24L4 23L2 23L2 24L3 24L3 25L8 25L8 27L11 27L11 28L8 28L8 33L9 33L9 32L10 32L10 33L12 33L12 32L11 32L11 30L13 30L13 29L15 29L15 28L16 28L16 26L17 26L17 25L18 25L18 27L19 27L19 26L20 26L20 29L18 29L18 28L17 28L17 29L16 29L16 30L14 30L14 31L18 31L18 32L17 32L17 33L18 33L18 32L19 32L19 31L18 31L18 30L20 30L20 31L21 31L21 32L22 32L22 33L23 33L23 32L24 32L24 33L25 33L25 32L24 32L24 31L23 31L23 27L24 27L24 29L28 29L28 30L25 30L25 31L27 31L27 32L26 32L26 33L27 33L27 32L28 32L28 33L29 33L29 31L28 31L28 30L29 30L29 29L30 29L30 30L31 30L31 31L30 31L30 32L31 32L31 33L32 33L32 32L31 32L31 31L32 31L32 30L31 30L31 29L32 29L32 26L33 26L33 24L32 24L32 26L29 26L29 25L30 25L30 24L31 24L31 23L32 23L32 22L33 22L33 21L32 21L32 20L31 20L31 19L32 19L32 18L33 18L33 17L32 17L32 16L31 16L31 15L32 15L32 14L33 14L33 13L31 13L31 15L30 15L30 13L29 13L29 10L28 10L28 8L27 8L27 9L26 9L26 8L24 8L24 7L25 7L25 6L24 6L24 7L23 7L23 5L24 5L24 4L25 4L25 3L23 3L23 1L24 1L24 0L23 0L23 1L22 1L22 0L18 0L18 1L20 1L20 2L21 2L21 3L22 3L22 4L23 4L23 5L22 5L22 7L21 7L21 4L20 4L20 3L19 3L19 2L18 2L18 3L17 3L17 2L16 2L16 1L17 1L17 0L16 0L16 1L15 1L15 0ZM8 1L8 2L9 2L9 1ZM18 4L18 5L17 5L17 7L16 7L16 6L15 6L15 7L16 7L16 8L19 8L19 7L20 7L20 5L19 5L19 4ZM9 6L9 7L10 7L10 6ZM11 6L11 7L12 7L12 6ZM18 6L18 7L19 7L19 6ZM22 7L22 8L21 8L21 9L22 9L22 8L23 8L23 7ZM10 8L10 9L9 9L9 10L8 10L8 11L6 11L6 12L5 12L5 15L4 15L4 19L5 19L5 17L6 17L6 18L7 18L7 19L6 19L6 20L8 20L8 21L10 21L10 22L13 22L13 21L14 21L14 18L16 18L16 17L17 17L17 18L18 18L18 17L19 17L19 16L18 16L18 15L22 15L22 13L25 13L25 14L26 14L26 13L27 13L27 12L28 12L28 11L27 11L27 10L25 10L25 11L26 11L26 12L24 12L24 10L23 10L23 12L21 12L21 14L18 14L18 13L16 13L16 12L15 12L15 10L17 10L17 12L19 12L19 13L20 13L20 11L21 11L21 10L20 10L20 9L13 9L13 10L12 10L12 9L11 9L11 8ZM29 8L29 9L30 9L30 8ZM31 8L31 10L33 10L33 9L32 9L32 8ZM10 9L10 11L11 11L11 9ZM13 10L13 11L12 11L12 13L13 13L13 14L11 14L11 17L9 17L9 16L8 16L8 14L9 14L9 15L10 15L10 13L11 13L11 12L8 12L8 14L6 14L6 15L7 15L7 16L6 16L6 17L9 17L9 19L8 19L8 20L9 20L9 19L10 19L10 21L11 21L11 17L12 17L12 18L13 18L13 17L16 17L16 16L17 16L17 17L18 17L18 16L17 16L17 15L18 15L18 14L17 14L17 15L16 15L16 14L14 14L14 13L15 13L15 12L13 12L13 11L14 11L14 10ZM18 10L18 11L19 11L19 10ZM30 11L30 12L31 12L31 11ZM6 12L6 13L7 13L7 12ZM0 13L0 14L3 14L3 13ZM28 13L28 15L29 15L29 17L28 17L28 16L26 16L26 15L25 15L25 16L24 16L24 14L23 14L23 17L28 17L28 18L29 18L29 17L30 17L30 19L27 19L27 18L25 18L25 19L26 19L26 20L24 20L24 18L21 18L21 19L20 19L20 18L19 18L19 20L18 20L18 19L16 19L16 20L15 20L15 22L16 22L16 21L17 21L17 22L19 22L19 23L20 23L20 24L18 24L18 23L17 23L17 24L18 24L18 25L20 25L20 24L21 24L21 25L22 25L22 24L21 24L21 22L19 22L19 21L22 21L22 22L23 22L23 23L25 23L25 24L27 24L27 23L28 23L28 24L30 24L30 23L29 23L29 22L30 22L30 21L31 21L31 20L30 20L30 19L31 19L31 16L30 16L30 15L29 15L29 13ZM13 14L13 15L12 15L12 17L13 17L13 16L15 16L15 15L14 15L14 14ZM20 16L20 17L22 17L22 16ZM0 19L0 20L1 20L1 21L0 21L0 25L1 25L1 22L2 22L2 19ZM12 19L12 21L13 21L13 19ZM21 19L21 20L22 20L22 21L23 21L23 22L28 22L28 21L30 21L30 20L28 20L28 21L23 21L23 20L22 20L22 19ZM17 20L17 21L18 21L18 20ZM6 21L6 22L7 22L7 21ZM8 22L8 24L9 24L9 22ZM10 23L10 25L9 25L9 26L10 26L10 25L11 25L11 27L12 27L12 28L11 28L11 29L10 29L10 30L11 30L11 29L13 29L13 28L14 28L14 27L15 27L15 25L16 25L16 23L15 23L15 25L14 25L14 26L13 26L13 27L12 27L12 25L11 25L11 23ZM12 23L12 24L14 24L14 23ZM23 24L23 25L24 25L24 24ZM25 25L25 28L28 28L28 25ZM21 26L21 27L23 27L23 26ZM26 26L26 27L27 27L27 26ZM29 27L29 28L30 28L30 29L31 29L31 28L30 28L30 27ZM21 28L21 29L22 29L22 28ZM22 31L22 32L23 32L23 31ZM13 32L13 33L14 33L14 32ZM15 32L15 33L16 33L16 32ZM0 0L0 7L7 7L7 0ZM1 1L1 6L6 6L6 1ZM2 2L2 5L5 5L5 2ZM26 0L26 7L33 7L33 0ZM27 1L27 6L32 6L32 1ZM28 2L28 5L31 5L31 2ZM0 26L0 33L7 33L7 26ZM1 27L1 32L6 32L6 27ZM2 28L2 31L5 31L5 28Z" fill="#000000"/></g></g></svg>
