<?xml version="1.0" encoding="UTF-8"?>
<svg xmlns="http://www.w3.org/2000/svg" version="1.1" width="500" height="500" viewBox="0 0 500 500"><rect x="0" y="0" width="500" height="500" fill="#ffffff"/><g transform="scale(15.152)"><g transform="translate(0,0)"><path fill-rule="evenodd" d="M8 0L8 4L10 4L10 3L11 3L11 4L12 4L12 2L11 2L11 0ZM12 0L12 1L13 1L13 2L14 2L14 0ZM15 0L15 1L17 1L17 0ZM18 0L18 1L19 1L19 2L20 2L20 1L19 1L19 0ZM23 0L23 1L22 1L22 2L21 2L21 3L22 3L22 2L23 2L23 3L25 3L25 2L23 2L23 1L24 1L24 0ZM9 2L9 3L10 3L10 2ZM17 2L17 3L13 3L13 5L11 5L11 6L10 6L10 7L9 7L9 5L8 5L8 7L9 7L9 8L10 8L10 7L11 7L11 6L12 6L12 8L11 8L11 9L7 9L7 8L4 8L4 9L3 9L3 10L2 10L2 8L0 8L0 10L2 10L2 13L1 13L1 14L0 14L0 15L1 15L1 14L2 14L2 16L1 16L1 17L0 17L0 19L1 19L1 17L2 17L2 19L3 19L3 17L4 17L4 20L3 20L3 22L2 22L2 24L0 24L0 25L2 25L2 24L3 24L3 25L4 25L4 24L5 24L5 21L9 21L9 22L10 22L10 21L11 21L11 20L12 20L12 21L14 21L14 20L15 20L15 22L13 22L13 23L12 23L12 24L8 24L8 26L9 26L9 27L8 27L8 29L9 29L9 31L8 31L8 33L9 33L9 31L10 31L10 33L12 33L12 32L13 32L13 30L14 30L14 31L16 31L16 32L17 32L17 33L18 33L18 31L19 31L19 29L20 29L20 28L21 28L21 29L22 29L22 30L20 30L20 31L21 31L21 32L19 32L19 33L23 33L23 31L24 31L24 33L26 33L26 32L25 32L25 31L27 31L27 33L29 33L29 32L30 32L30 31L32 31L32 30L33 30L33 28L32 28L32 24L31 24L31 28L32 28L32 29L30 29L30 27L29 27L29 25L30 25L30 23L29 23L29 22L28 22L28 23L27 23L27 24L24 24L24 25L23 25L23 24L22 24L22 22L21 22L21 25L22 25L22 27L21 27L21 26L20 26L20 28L19 28L19 27L18 27L18 26L19 26L19 25L20 25L20 23L19 23L19 25L18 25L18 23L17 23L17 24L15 24L15 23L16 23L16 22L17 22L17 21L18 21L18 19L16 19L16 18L17 18L17 17L18 17L18 18L19 18L19 17L18 17L18 15L19 15L19 16L20 16L20 17L22 17L22 19L21 19L21 18L20 18L20 19L21 19L21 20L19 20L19 21L23 21L23 23L25 23L25 21L30 21L30 22L31 22L31 23L32 23L32 22L31 22L31 21L30 21L30 19L32 19L32 18L30 18L30 17L29 17L29 16L30 16L30 15L32 15L32 14L30 14L30 13L29 13L29 12L30 12L30 11L31 11L31 10L29 10L29 12L28 12L28 13L29 13L29 14L26 14L26 13L27 13L27 12L26 12L26 11L25 11L25 13L22 13L22 10L23 10L23 12L24 12L24 10L25 10L25 6L24 6L24 8L23 8L23 5L24 5L24 4L23 4L23 5L22 5L22 4L21 4L21 6L20 6L20 5L19 5L19 6L18 6L18 7L17 7L17 5L18 5L18 4L17 4L17 3L18 3L18 2ZM19 3L19 4L20 4L20 3ZM16 4L16 5L15 5L15 7L16 7L16 5L17 5L17 4ZM13 6L13 8L12 8L12 9L11 9L11 10L7 10L7 9L6 9L6 10L4 10L4 11L3 11L3 12L4 12L4 11L6 11L6 12L5 12L5 13L4 13L4 14L3 14L3 16L4 16L4 17L5 17L5 16L4 16L4 14L5 14L5 15L6 15L6 16L7 16L7 17L6 17L6 18L5 18L5 20L4 20L4 21L5 21L5 20L7 20L7 19L6 19L6 18L8 18L8 20L9 20L9 19L10 19L10 20L11 20L11 19L10 19L10 18L12 18L12 17L17 17L17 15L18 15L18 13L16 13L16 14L17 14L17 15L16 15L16 16L15 16L15 15L14 15L14 13L15 13L15 10L14 10L14 11L12 11L12 12L11 12L11 13L10 13L10 11L11 11L11 10L12 10L12 9L16 9L16 12L17 12L17 10L18 10L18 11L19 11L19 12L20 12L20 13L19 13L19 15L22 15L22 16L23 16L23 17L25 17L25 18L24 18L24 20L23 20L23 21L25 21L25 19L26 19L26 20L28 20L28 19L30 19L30 18L29 18L29 17L25 17L25 16L26 16L26 15L25 15L25 14L24 14L24 16L23 16L23 14L21 14L21 12L20 12L20 11L21 11L21 10L22 10L22 9L21 9L21 8L19 8L19 9L16 9L16 8L14 8L14 6ZM19 6L19 7L20 7L20 6ZM21 6L21 7L22 7L22 6ZM27 8L27 9L28 9L28 8ZM29 8L29 9L33 9L33 8ZM19 9L19 10L20 10L20 9ZM6 10L6 11L7 11L7 12L6 12L6 13L5 13L5 14L6 14L6 15L7 15L7 16L8 16L8 18L9 18L9 17L12 17L12 16L13 16L13 15L12 15L12 16L10 16L10 15L11 15L11 14L9 14L9 16L8 16L8 15L7 15L7 14L6 14L6 13L8 13L8 11L7 11L7 10ZM27 10L27 11L28 11L28 10ZM0 11L0 12L1 12L1 11ZM12 12L12 13L13 13L13 12ZM31 12L31 13L33 13L33 12ZM29 14L29 15L28 15L28 16L29 16L29 15L30 15L30 14ZM32 16L32 17L33 17L33 16ZM13 18L13 19L12 19L12 20L14 20L14 18ZM27 18L27 19L28 19L28 18ZM1 20L1 21L0 21L0 22L1 22L1 21L2 21L2 20ZM16 20L16 21L17 21L17 20ZM32 20L32 21L33 21L33 20ZM3 22L3 23L4 23L4 22ZM6 22L6 23L7 23L7 22ZM13 23L13 28L11 28L11 26L12 26L12 25L9 25L9 26L10 26L10 27L9 27L9 29L10 29L10 31L11 31L11 29L15 29L15 28L14 28L14 27L15 27L15 26L16 26L16 25L15 25L15 24L14 24L14 23ZM6 24L6 25L7 25L7 24ZM14 25L14 26L15 26L15 25ZM17 25L17 26L18 26L18 25ZM25 25L25 28L28 28L28 25ZM23 26L23 27L22 27L22 28L23 28L23 30L22 30L22 31L23 31L23 30L25 30L25 29L24 29L24 28L23 28L23 27L24 27L24 26ZM26 26L26 27L27 27L27 26ZM16 28L16 29L17 29L17 28ZM18 28L18 29L19 29L19 28ZM29 29L29 30L30 30L30 29ZM16 30L16 31L18 31L18 30ZM28 31L28 32L29 32L29 31ZM14 32L14 33L15 33L15 32ZM32 32L32 33L33 33L33 32ZM0 0L0 7L7 7L7 0ZM1 1L1 6L6 6L6 1ZM2 2L2 5L5 5L5 2ZM26 0L26 7L33 7L33 0ZM27 1L27 6L32 6L32 1ZM28 2L28 5L31 5L31 2ZM0 26L0 33L7 33L7 26ZM1 27L1 32L6 32L6 27ZM2 28L2 31L5 31L5 28Z" fill="#000000"/></g></g></svg>
